<svg xmlns="http://www.w3.org/2000/svg" viewBox="0 0 400 400" width="400" height="400">
  <defs>
    <linearGradient id="bg2" x1="0%" y1="0%" x2="100%" y2="100%">
      <stop offset="0%" stop-color="#1a1a2e"/>
      <stop offset="100%" stop-color="#16213e"/>
    </linearGradient>
  </defs>
  <rect width="400" height="400" fill="url(#bg2)"/>
  <circle cx="200" cy="200" r="180" fill="none" stroke="#333" stroke-width="2"/>
  <g transform="translate(200,200)">
    <g>
      <polygon points="0,-120 15,-100 10,100 -15,100" fill="#4682b4" opacity="0.8"/>
      <polygon points="0,-120 -15,-100 -10,100 15,100" fill="#1e90ff" opacity="0.7"/>
    </g>
    <g transform="rotate(30)">
      <polygon points="0,-100 12,-80 8,80 -12,80" fill="#5f9ea0" opacity="0.8"/>
    </g>
    <g transform="rotate(60)">
      <polygon points="0,-90 10,-70 6,70 -10,70" fill="#6495ed" opacity="0.75"/>
    </g>
    <g transform="rotate(90)">
      <polygon points="0,-110 14,-90 9,90 -14,90" fill="#4169e1" opacity="0.85"/>
    </g>
    <g transform="rotate(120)">
      <polygon points="0,-95 11,-75 7,75 -11,75" fill="#00bfff" opacity="0.7"/>
    </g>
    <g transform="rotate(150)">
      <polygon points="0,-85 9,-65 5,65 -9,65" fill="#87ceeb" opacity="0.8"/>
    </g>
  </g>
  <line x1="60" y1="340" x2="160" y2="340" stroke="#fff" stroke-width="2"/>
  <text x="60" y="365" fill="#fff" font-size="12" font-family="monospace">200 μm</text>
  <text x="10" y="25" fill="#fff" font-size="14" font-family="monospace">PPL 100×</text>
  <text x="280" y="385" fill="#888" font-size="10" font-family="monospace">Al₈BSi₄O₁₉(OH)</text>
</svg>
